<?xml version="1.0" encoding="UTF-8"?>
<svg width="313px" height="443px" viewBox="0 0 313 443" version="1.1" xmlns="http://www.w3.org/2000/svg" xmlns:xlink="http://www.w3.org/1999/xlink">
    <!-- Generator: Sketch 43.2 (39069) - http://www.bohemiancoding.com/sketch -->
    <title>birbucuk-logo</title>
    <desc>Created with Sketch.</desc>
    <defs></defs>
    <g id="Page-1" stroke="none" stroke-width="1" fill="none" fill-rule="evenodd">
        <g id="birbucuk-logo">
            <path d="M6.0243,286.4466 C15.0023,286.3466 23.9803,286.2476 32.9583,286.1476 C33.8673,284.9656 33.4983,283.5846 33.4993,282.2896 C33.5183,244.0386 33.5163,205.7866 33.5083,167.5356 C33.5073,166.3836 33.6943,165.1986 33.1283,164.1046 C24.7193,165.9976 16.9913,169.8146 9.0043,172.8636 C5.2763,174.2866 4.0643,173.7396 2.9083,169.9276 C-0.6357,158.2396 -0.7557,158.4426 10.5053,154.3796 C21.8673,150.2796 33.1123,145.8536 44.3983,141.5426 C49.9063,139.4376 49.9983,139.4746 49.9983,145.3386 C50.0003,190.6646 50.0693,235.9906 49.8903,281.3146 C49.8733,285.5896 51.0803,286.4376 55.1873,286.5926 C56.7453,286.6516 57.4643,286.7316 58.6253,286.6546 C62.7073,286.3846 65.4483,286.2646 67.5383,281.6786 C69.8753,277.9046 73.9373,275.0926 77.9843,274.1466 C82.6253,272.9676 87.5133,272.8306 91.9453,274.0356 C95.8053,275.7846 99.5313,278.7496 102.2263,282.9576 C102.9683,284.1156 103.3513,285.6476 105.4153,285.2986 C116.4223,283.4386 127.6483,282.3826 137.0173,275.2876 C148.3073,266.7386 155.4993,255.5976 155.8303,241.3756 C156.2503,223.3046 141.2823,212.0516 123.4843,215.0706 C116.8363,216.1976 110.9023,218.7656 104.8703,221.5866 C100.6683,223.5516 95.7173,222.1726 91.1073,222.1426 C89.4573,222.1316 90.0243,220.3546 90.0253,219.3226 C90.0473,193.6836 90.1083,168.0446 90.1633,142.4056 C92.0553,141.7216 93.0363,141.8206 94.4773,141.8186 C116.8693,141.7846 139.2623,141.8976 161.6523,141.7006 C165.6523,141.6646 167.0243,142.8416 166.5183,146.7156 C166.1143,149.8126 166.4973,152.6546 166.0343,156.0796 C148.5203,156.1476 131.0073,156.2116 113.4933,156.2886 C111.3473,156.2976 109.2013,156.3796 107.0553,156.4286 C106.6873,159.3426 106.5073,161.6236 106.5303,164.2056 C106.6433,176.8986 106.0453,189.5986 106.8433,202.2856 C113.2043,202.2676 119.0613,199.6166 125.3823,198.9336 C136.7173,197.7076 146.9063,200.2496 156.2073,206.1826 C163.7983,211.0246 168.5623,218.3256 171.3983,226.9486 C172.0023,228.7846 172.1543,230.0906 172.7633,232.8446 C173.6253,241.0926 172.9673,243.9676 172.3123,250.4046 C171.6983,260.0426 167.0853,268.2576 161.2093,275.4326 C147.5523,292.1096 129.2703,299.5276 108.0433,300.2256 C105.5893,300.3066 104.0273,301.1706 102.9983,303.2626 C97.2763,314.8866 80.9743,317.8586 71.3603,309.4656 C68.6903,307.1346 66.9483,304.5446 65.8703,301.3226 C64.3533,300.2996 62.6423,300.7936 61.0283,300.7896 C44.4423,300.7496 27.8563,300.7666 11.2703,300.7636 C5.5193,300.7626 5.4443,300.7556 5.5483,294.7936 C5.5963,292.0126 4.9853,289.1756 6.0243,286.4466" id="Fill-3" fill="#4990E2"></path>
            <path d="M104.0735,0.1787 C145.2435,1.7827 182.2735,15.4637 216.4015,38.1037 C232.1975,48.5827 245.8895,61.4117 258.3275,75.4097 C276.8935,96.3027 290.5665,120.3107 300.0605,146.6907 C306.0275,163.2697 309.4685,180.3907 311.9075,197.7497 C312.5655,203.6967 312.5005,205.3917 312.5655,209.2167 C312.8095,214.2797 312.7435,225.9157 312.1325,234.2637 C311.1655,269.1327 300.5055,301.2817 283.8625,331.4997 C271.7345,353.5177 255.4695,372.5317 236.5655,388.9687 C215.4745,407.3077 191.6125,421.2207 165.0315,430.3887 C149.6445,435.6957 134.0405,439.5787 117.8515,441.4817 C113.2245,442.0247 108.6405,441.9697 104.0505,442.3607 C99.4185,442.9797 94.7885,443.1107 90.1635,442.3017 C90.1625,438.3567 90.1615,434.4107 90.1605,430.4657 C95.3585,428.7087 100.7985,430.6627 106.0305,429.4307 C110.6665,429.1137 114.7305,428.1827 119.0455,427.5397 C137.7725,424.7507 155.7185,419.6157 173.1385,412.2837 C202.0285,400.1247 226.3935,381.6547 247.1065,358.4657 C261.4345,342.4247 272.9495,324.4177 281.4725,304.4727 C289.2355,286.3057 295.4995,264.1967 297.5835,248.1137 C298.5095,241.7707 298.5095,241.7707 298.9995,238.5297 C299.2735,234.6207 299.3465,231.9397 299.3335,230.9467 C299.2055,221.2097 299.3205,220.1977 298.7495,209.2167 C298.4745,203.1997 297.8085,198.1287 297.2355,194.0297 C293.5555,167.6797 285.2465,143.0927 272.3355,119.7877 C260.8065,98.9747 245.8575,81.0617 228.3305,65.3487 C212.3005,50.9777 194.2505,39.5427 174.3745,30.8347 C157.7885,23.5697 140.5355,19.0227 122.9485,15.4087 C118.9515,14.5877 117.0985,13.8717 112.9995,13.6137 C111.3445,13.5087 110.6665,13.6137 106.0375,13.1137 C100.4955,12.7177 95.4075,13.5327 90.1675,12.2967 L90.1675,0.2537" id="Fill-4" fill="#4990E2"></path>
            <path d="M194.084,101.3274 C192.499,112.4924 180.933,121.2514 170.323,122.2784 C154.687,123.7924 141.98,114.8984 138.564,100.2444 C134.934,84.6664 144.149,69.6344 158.835,66.2574 C163.94,65.9194 169.045,65.2144 174.147,66.2954 C184.548,68.0914 190.539,74.8114 194.136,84.2034 C195.833,92.4464 195.5,94.0814 194.084,101.3274" id="Fill-5" fill="#4990E2"></path>
            <path d="M312.1328,234.2634 C312.1438,225.9144 312.1558,217.5654 312.1678,209.2174" id="Fill-6" fill="#4990E2"></path>
            <path d="M104.0735,0.1787 C99.4385,0.2037 94.8025,0.2297 90.1675,0.2547" id="Fill-7" fill="#4990E2"></path>
            <path d="M167.137,109.2942 C158.21,109.3152 151.064,102.5352 150.993,94.0862 C150.9,83.1272 158.469,78.1052 166.58,77.4782 C174.359,76.8762 183.425,86.2112 182.892,93.8692 C182.378,101.2562 176.409,110.0462 167.137,109.2942" id="Fill-8" fill="#FCFCFA"></path>
        </g>
    </g>
</svg>